<svg xmlns="http://www.w3.org/2000/svg" width="23" height="23" fill="none" viewBox="0 0 23 23">
  <g clip-path="url(#a)">
    <path fill="#46B8C8" fill-rule="evenodd" d="M16.242.073c-2.116-.098-7.358-.093-9.475 0C4.905.161 3.264.61 1.94 1.933-.039 3.914-.02 6.509.005 10.164a187.407 187.407 0 0 1 .002 2.582c-.021 3.778-.035 6.346 1.933 8.315 1.983 1.982 4.607 1.963 8.221 1.936.434-.003.88-.007 1.343-.007h.062c4.383 0 5.906 0 7.465-.604 2.13-.827 3.739-2.73 3.896-6.151.1-2.117.094-7.357 0-9.475-.19-4.04-2.357-6.487-6.685-6.687Zm3.349 19.524c-1.335 1.335-3.147 1.33-7.06 1.322l-1.055-.002h-.658c-4.314.004-6.121.005-7.457-1.335-1.39-1.383-1.367-3.488-1.334-6.542a127.297 127.297 0 0 0 .003-2.91c-.042-4.582-.071-7.78 4.779-8.029l.055-.002c1.177-.041 1.572-.055 4.598-.055l.043.029c.438 0 .868-.004 1.287-.008 4.48-.041 7.848-.072 8.068 4.786.055 1.212.067 1.576.067 4.645v.8c.004 4.16.006 5.952-1.336 7.3ZM11.504 5.595a5.9 5.9 0 0 0-5.902 5.901 5.9 5.9 0 0 0 5.902 5.902 5.9 5.9 0 0 0 5.901-5.902 5.9 5.9 0 0 0-5.901-5.901Zm0 9.732a3.83 3.83 0 1 1 3.83-3.83 3.829 3.829 0 0 1-3.83 3.83Zm7.514-9.965a1.379 1.379 0 1 1-2.758 0 1.379 1.379 0 0 1 2.758 0Z" clip-rule="evenodd"/>
  </g>
  <defs>
    <clipPath id="a">
      <path fill="#fff" d="M0 0h23v23H0z"/>
    </clipPath>
  </defs>
</svg>
