<svg xmlns="http://www.w3.org/2000/svg" width="23" height="23" fill="none" viewBox="0 0 23 23">
  <g clip-path="url(#a)">
    <path fill="#46B8C8" d="M23 4.369a9.83 9.83 0 0 1-2.717.744 4.689 4.689 0 0 0 2.074-2.606 9.422 9.422 0 0 1-2.99 1.141 4.714 4.714 0 0 0-8.156 3.224c0 .374.032.734.11 1.076-3.92-.191-7.39-2.07-9.72-4.932a4.747 4.747 0 0 0-.645 2.383c0 1.633.84 3.08 2.094 3.919a4.656 4.656 0 0 1-2.13-.58v.05a4.737 4.737 0 0 0 3.778 4.634 4.704 4.704 0 0 1-1.237.155c-.301 0-.606-.017-.892-.08.61 1.867 2.344 3.24 4.406 3.284a9.475 9.475 0 0 1-5.847 2.011A8.82 8.82 0 0 1 0 18.728a13.274 13.274 0 0 0 7.234 2.116c8.676 0 13.42-7.188 13.42-13.418 0-.208-.007-.41-.017-.61A9.405 9.405 0 0 0 23 4.37Z"/>
  </g>
  <defs>
    <clipPath id="a">
      <path fill="#fff" d="M0 0h23v23H0z"/>
    </clipPath>
  </defs>
</svg>
